<svg xmlns="http://www.w3.org/2000/svg" version="1.1" xmlns:xlink="http://www.w3.org/1999/xlink" xmlns:svgjs="http://svgjs.dev/svgjs" width="1000" height="623" viewBox="0 0 1000 623"><g transform="matrix(1,0,0,1,-0.6060606060606233,0.2522267206477409)"><svg viewBox="0 0 396 247" data-background-color="#ffffff" preserveAspectRatio="xMidYMid meet" height="623" width="1000" xmlns="http://www.w3.org/2000/svg" xmlns:xlink="http://www.w3.org/1999/xlink"><g id="tight-bounds" transform="matrix(1,0,0,1,0.2400000000000091,-0.09999999999999432)"><svg viewBox="0 0 395.52 247.2" height="247.2" width="395.52"><g><svg></svg></g><g><svg viewBox="0 0 395.52 247.2" height="247.2" width="395.52"><mask id="d2c7a26b-8d98-4d98-b12b-40f38bd9a592"><rect width="640" height="400" fill="white"></rect><g transform="matrix(1,0,0,1,130.86408938547487,37.08)"><svg viewBox="0 0 133.79182122905027 173.04" height="173.04" width="133.79182122905027"><g><svg viewBox="0 0 133.79182122905027 173.04" height="173.04" width="133.79182122905027"><g><svg viewBox="0 0 133.79182122905027 173.04" height="173.04" width="133.79182122905027"><g><svg viewBox="0 0 133.79182122905027 173.04" height="173.04" width="133.79182122905027"><g id="SvgjsG1226"><svg viewBox="0 0 133.79182122905027 173.04" height="173.04" width="133.79182122905027" id="SvgjsSvg1225"><g><svg viewBox="0 0 133.79182122905027 173.04" height="173.04" width="133.79182122905027"><g transform="matrix(1,0,0,1,0,0)"><svg width="133.79182122905027" viewBox="-3.75 -41.5 35.6 45.75" height="173.04" data-palette-color="#6936f5"><path d="M7.55-1.45L0.25 0.25Q1.75-6.95 3.1-13.7L3.1-13.7Q3.6-16.6 4.17-19.7 4.75-22.8 5.25-25.83 5.75-28.85 6.15-31.63 6.55-34.4 6.75-36.65L6.75-36.65Q7.4-36.6 7.85-36.6 8.3-36.6 8.9-36.6L8.9-36.6Q9.6-36.6 10.6-36.63 11.6-36.65 12.6-36.7 13.6-36.75 14.75-36.8L14.75-36.8Q15.45-33.3 16-30.05L16-30.05Q16.55-27.2 17.13-24.2 17.7-21.2 18.15-19.1L18.15-19.1Q18.35-20.1 18.6-21.43 18.85-22.75 19.15-24.2 19.45-25.65 19.73-27.13 20-28.6 20.3-30.05L20.3-30.05Q21-33.3 21.75-36.75L21.75-36.75 27.85-37.5Q26.15-29.85 24.85-23L24.85-23Q24.25-20.05 23.68-17.03 23.1-14 22.6-11.23 22.1-8.45 21.75-6.08 21.4-3.7 21.2-2.1L21.2-2.1Q21.05-2.1 20.03-1.88 19-1.65 17.68-1.35 16.35-1.05 15.03-0.75 13.7-0.45 13.05-0.2L13.05-0.2Q12.75-4.2 12.4-7.8L12.4-7.8Q12.25-9.35 12.08-10.98 11.9-12.6 11.7-14.1 11.5-15.6 11.3-16.9 11.1-18.2 10.9-19.15L10.9-19.15Q10.75-18.2 10.5-16.95 10.25-15.7 10-14.3 9.75-12.9 9.5-11.38 9.25-9.85 8.95-8.45L8.95-8.45Q8.3-5.1 7.55-1.45L7.55-1.45Z" opacity="1" transform="matrix(1,0,0,1,0,0)" fill="black" class="wordmark-text-0" id="SvgjsPath1224" stroke-width="7" stroke="black" stroke-linejoin="round"></path></svg></g></svg></g></svg></g></svg></g><g></g></svg></g></svg></g></svg></g></mask><g transform="matrix(1,0,0,1,130.86408938547487,37.08)"><svg viewBox="0 0 133.79182122905027 173.04" height="173.04" width="133.79182122905027"><g><svg viewBox="0 0 133.79182122905027 173.04" height="173.04" width="133.79182122905027"><g><svg viewBox="0 0 133.79182122905027 173.04" height="173.04" width="133.79182122905027"><g><svg viewBox="0 0 133.79182122905027 173.04" height="173.04" width="133.79182122905027"><g id="textblocktransform"><svg viewBox="0 0 133.79182122905027 173.04" height="173.04" width="133.79182122905027" id="textblock"><g><svg viewBox="0 0 133.79182122905027 173.04" height="173.04" width="133.79182122905027"><g transform="matrix(1,0,0,1,0,0)"><svg width="133.79182122905027" viewBox="-3.75 -41.5 35.6 45.75" height="173.04" data-palette-color="#6936f5"><path d="M7.55-1.45L0.25 0.25Q1.75-6.95 3.1-13.7L3.1-13.7Q3.6-16.6 4.17-19.7 4.75-22.8 5.25-25.83 5.75-28.85 6.15-31.63 6.55-34.4 6.75-36.65L6.75-36.65Q7.4-36.6 7.85-36.6 8.3-36.6 8.9-36.6L8.9-36.6Q9.6-36.6 10.6-36.63 11.6-36.65 12.6-36.7 13.6-36.75 14.75-36.8L14.75-36.8Q15.45-33.3 16-30.05L16-30.05Q16.55-27.2 17.13-24.2 17.7-21.2 18.15-19.1L18.15-19.1Q18.35-20.1 18.6-21.43 18.85-22.75 19.15-24.2 19.45-25.65 19.73-27.13 20-28.6 20.3-30.05L20.3-30.05Q21-33.3 21.75-36.75L21.75-36.75 27.85-37.5Q26.15-29.85 24.85-23L24.85-23Q24.25-20.05 23.68-17.03 23.1-14 22.6-11.23 22.1-8.45 21.75-6.08 21.4-3.7 21.2-2.1L21.2-2.1Q21.05-2.1 20.03-1.88 19-1.65 17.68-1.35 16.35-1.05 15.03-0.75 13.7-0.45 13.05-0.2L13.05-0.2Q12.75-4.2 12.4-7.8L12.4-7.8Q12.25-9.35 12.08-10.98 11.9-12.6 11.7-14.1 11.5-15.6 11.3-16.9 11.1-18.2 10.9-19.15L10.9-19.15Q10.75-18.2 10.5-16.95 10.25-15.7 10-14.3 9.75-12.9 9.5-11.38 9.25-9.85 8.95-8.45L8.95-8.45Q8.3-5.1 7.55-1.45L7.55-1.45Z" opacity="1" transform="matrix(1,0,0,1,0,0)" fill="#6936f5" class="wordmark-text-0" data-fill-palette-color="primary" id="text-0"></path></svg></g></svg></g></svg></g></svg></g><g></g></svg></g></svg></g></svg></g><g mask="url(#d2c7a26b-8d98-4d98-b12b-40f38bd9a592)"><g transform="matrix(3.4250593658332167, 0, 0, 3.4250593658332167, 126.6215169716441, 1)"><svg xmlns="http://www.w3.org/2000/svg" data-name="Layer 1" viewBox="22.73 6 41.53999999999999 71.59" x="0" y="0" height="71.59" width="41.53999999999999" class="icon-none" data-fill-palette-color="accent" id="none"><path d="M43.5 77.59L22.73 51.31 43.5 6 64.27 51.31ZM25.64 51L43.5 73.56 61.36 51 43.5 12Z" fill="#6936f5" data-fill-palette-color="accent"></path><path d="M57.88 52.14a1 1 0 0 1-1-1 1 1 0 0 1 0.07-0.38 0.84 0.84 0 0 1 0.22-0.33 1 1 0 0 1 1.41 0 0.83 0.83 0 0 1 0.22 0.33 1 1 0 0 1 0.08 0.38 1 1 0 0 1-1 1Z" fill="#6936f5" data-fill-palette-color="accent"></path><path d="M52.13 51.14a1 1 0 0 1 1-1h0a1 1 0 0 1 1 1h0a1 1 0 0 1-1 1h0A1 1 0 0 1 52.13 51.14Z" fill="#6936f5" data-fill-palette-color="accent"></path><path d="M47.4 51.14a1 1 0 0 1 1-1h0a1 1 0 0 1 1 1h0a1 1 0 0 1-1 1h0A1 1 0 0 1 47.4 51.14Z" fill="#6936f5" data-fill-palette-color="accent"></path><path d="M42.66 51.14a1 1 0 0 1 1-1h0a1 1 0 0 1 1 1h0a1 1 0 0 1-1 1h0A1 1 0 0 1 42.66 51.14Z" fill="#6936f5" data-fill-palette-color="accent"></path><path d="M37.92 51.14a1 1 0 0 1 1-1h0a1 1 0 0 1 1 1h0a1 1 0 0 1-1 1h0A1 1 0 0 1 37.92 51.14Z" fill="#6936f5" data-fill-palette-color="accent"></path><path d="M33.18 51.14a1 1 0 0 1 1-1h0a1 1 0 0 1 1 1h0a1 1 0 0 1-1 1h0A1 1 0 0 1 33.18 51.14Z" fill="#6936f5" data-fill-palette-color="accent"></path><path d="M29.44 52.14a1 1 0 0 1-0.71-0.29 1 1 0 0 1-0.29-0.71 1 1 0 0 1 0.07-0.38 1 1 0 0 1 0.22-0.33 1 1 0 0 1 1.42 0 0.94 0.94 0 0 1 0.21 0.33 1 1 0 0 1 0.08 0.38 1 1 0 0 1-1 1Z" fill="#6936f5" data-fill-palette-color="accent"></path></svg></g></g></svg></g><defs></defs></svg><rect width="395.52" height="247.2" fill="none" stroke="none" visibility="hidden"></rect></g></svg></g></svg>